<?xml version="1.0" encoding="utf-8"?>
<!-- Generator: $$$/GeneralStr/196=Adobe Illustrator 27.6.0, SVG Export Plug-In . SVG Version: 6.00 Build 0)  -->
<svg version="1.1" id="Calque_1" xmlns="http://www.w3.org/2000/svg" xmlns:xlink="http://www.w3.org/1999/xlink" x="0px" y="0px"
	 viewBox="0 0 1084 262" style="enable-background:new 0 0 1084 262;" xml:space="preserve">
<style type="text/css">
	.st0{fill:#FFFFFF;}
</style>
<g>
	<polygon class="st0" points="225.1,129.9 175.1,129.9 150.1,173.2 150.1,173.2 100.1,173.2 75.1,129.9 100.1,86.6 150.1,86.6 
		175.1,43.3 150.1,0 100.1,0 75,43.3 25,43.3 0,86.6 25.1,130 0.1,173.2 25.1,216.5 75.1,216.5 100.1,259.8 150.1,259.8 
		175.1,216.5 175.1,216.5 225.1,216.5 250.1,173.2 	"/>
	<g>
		<path class="st0" d="M309.3,130.8c0-56.7,31.3-88.8,79-88.8c40.1,0,66.7,22.6,72.9,56.5l-15.7,1.9c-5.9-28-26.6-43.9-57.2-43.9
			c-40.4,0-62.7,26.6-62.7,74.1s22.3,74.1,60.8,74.1c36.1,0,60.3-24.7,60.3-61.5h-52.9v-13.8h69.3v87.8h-12.8l-2.8-37.5
			c-8.8,24-31.6,39.9-62.7,39.9C337.5,219.6,309.3,184,309.3,130.8z"/>
		<path class="st0" d="M488.5,183.5c0-22.3,14-35.1,38.7-39.6l34.4-6.2c14.5-2.6,17.6-8.3,17.6-17.3c0-15.2-8.8-24.5-33-24.5
			c-25.9,0-38,11.4-38,28.2l-14.7-1.2c0-24.2,19.7-40.4,53.2-40.4c32.3,0,47.5,14.7,47.5,36.6V196c0,5.9,1.7,10,8.1,10
			c2.1,0,3.3-0.2,5-0.7h0.9v11.9c-1.9,0.7-5.9,1.4-9.7,1.4c-12.8,0-18.8-7.6-18.8-19.2v-4.7c-9,16.9-27.3,24.9-48,24.9
			C505.1,219.6,488.5,205.1,488.5,183.5z M579.4,176.4v-32c-3.6,2.6-10.7,5-23.3,7.1l-22.6,3.8c-21.1,3.6-29.4,13.5-29.4,26.6
			c0,14.7,10,24.7,30.9,24.7C558.1,206.5,575.9,194.4,579.4,176.4z"/>
		<path class="st0" d="M628.8,85h13.1l1.4,20.4c6.9-14,17.1-21.6,31.8-21.6c4.3,0,8.3,0.5,10.7,1.4v14.2h-1.2
			c-2.1-0.7-5.7-1.2-9-1.2c-19,0-31.8,13.8-31.8,34.9v84h-15V85z"/>
		<path class="st0" d="M692,183.5c0-22.3,14-35.1,38.7-39.6l34.4-6.2c14.5-2.6,17.6-8.3,17.6-17.3c0-15.2-8.8-24.5-33-24.5
			c-25.9,0-38,11.4-38,28.2l-14.7-1.2c0-24.2,19.7-40.4,53.2-40.4c32.3,0,47.5,14.7,47.5,36.6V196c0,5.9,1.7,10,8.1,10
			c2.1,0,3.3-0.2,5-0.7h0.9v11.9c-1.9,0.7-5.9,1.4-9.7,1.4c-12.8,0-18.8-7.6-18.8-19.2v-4.7c-9,16.9-27.3,24.9-48,24.9
			C708.6,219.6,692,205.1,692,183.5z M782.9,176.4v-32c-3.6,2.6-10.7,5-23.3,7.1l-22.6,3.8c-21.1,3.6-29.4,13.5-29.4,26.6
			c0,14.7,10,24.7,30.9,24.7C761.5,206.5,779.3,194.4,782.9,176.4z"/>
		<path class="st0" d="M827.7,222.9l14.5-3.3c2.6,21.1,19.2,27.3,38.2,27.3c30.4,0,42.3-14.7,42.3-37.5v-27.3
			c-8.3,16.9-24,26.6-43.7,26.6c-33.5,0-54.1-27.1-54.1-63.6c0-35.8,19.9-62.4,53.2-62.4c20.4,0,36.8,10.4,44.2,27.3l1.4-24.9h13.8
			v124.3c0,33-22.8,50.8-56.7,50.8C848.4,260.2,830.6,244.5,827.7,222.9z M922.7,150.5v-11.1c0-24.5-18-42.7-43-42.7
			c-25.2,0-39.4,19.2-39.4,48.7c0,30.6,15.2,49.1,40.1,49.1C905.8,194.4,922.7,175.4,922.7,150.5z"/>
		<path class="st0" d="M963.7,151.2c0-41.1,21.4-68.6,58.6-68.6c36.1,0,59.1,25.4,56.7,71.5H978.6c1.2,34.2,17.8,51.3,45.6,51.3
			c22.3,0,36.1-10.7,39.2-28.5l15,3.1c-5.2,25.4-26.3,39.6-54.4,39.6C987.5,219.6,963.7,194.4,963.7,151.2z M978.9,141.7h84.7
			c-0.2-27.5-15-45.6-41.1-45.6C998.2,96.2,981.6,110.6,978.9,141.7z"/>
	</g>
</g>
</svg>
